<!DOCTYPE svg PUBLIC "-//W3C//DTD SVG 1.1//EN" "http://www.w3.org/Graphics/SVG/1.1/DTD/svg11.dtd">
<!-- Uploaded to: SVG Repo, www.svgrepo.com, Transformed by: SVG Repo Mixer Tools -->
<svg fill="#ffffff" width="800px" height="800px" viewBox="-2.4 -2.4 28.80 28.80" id="clipboard-edit-2" data-name="Line Color" xmlns="http://www.w3.org/2000/svg" class="icon line-color" stroke="#ffffff">
<g id="SVGRepo_bgCarrier" stroke-width="0">
<rect x="-2.4" y="-2.4" width="28.80" height="28.80" rx="14.4" fill="#f1dfee" strokewidth="0"/>
</g>
<g id="SVGRepo_tracerCarrier" stroke-linecap="round" stroke-linejoin="round" stroke="#dedede" stroke-width="1.9200000000000004"/>
<g id="SVGRepo_iconCarrier">
<path id="primary" d="M17,16v4a1,1,0,0,1-1,1H4a1,1,0,0,1-1-1V4A1,1,0,0,1,4,3H16a1,1,0,0,1,1,1v6" style="fill: none; stroke: #e0107f; stroke-linecap: round; stroke-linejoin: round; stroke-width: 2;"/>
<path id="secondary" d="M7,6A1,1,0,0,0,8,7h4a1,1,0,0,0,1-1V3H7Zm13.71,4.69-1.4-1.4a1,1,0,0,0-1.4,0L13,14.2V17h2.8l4.91-4.91A1,1,0,0,0,20.71,10.69Z" style="fill: none; stroke: #544f51; stroke-linecap: round; stroke-linejoin: round; stroke-width: 2;"/>
</g>
</svg>