<!DOCTYPE svg PUBLIC "-//W3C//DTD SVG 1.1//EN" "http://www.w3.org/Graphics/SVG/1.1/DTD/svg11.dtd">
<!-- Uploaded to: SVG Repo, www.svgrepo.com, Transformed by: SVG Repo Mixer Tools -->
<svg height="800px" width="800px" version="1.1" id="Layer_1" xmlns="http://www.w3.org/2000/svg" xmlns:xlink="http://www.w3.org/1999/xlink" viewBox="-51.2 -51.2 614.40 614.40" xml:space="preserve" fill="#000000">
<g id="SVGRepo_bgCarrier" stroke-width="0" transform="translate(256,256), scale(0)">
<rect x="-51.2" y="-51.2" width="614.40" height="614.40" rx="307.2" fill="#d5ff05" strokewidth="0"/>
</g>
<g id="SVGRepo_tracerCarrier" stroke-linecap="round" stroke-linejoin="round" stroke="#f4f0f5" stroke-width="35.839999999999996"> <path style="fill:#938591;" d="M256,0C114.608,0,0,114.608,0,256c0,141.376,114.608,256,256,256s256-114.624,256-256 C512,114.608,397.392,0,256,0z"/> <g style="opacity:0.2;"> <polygon points="313.344,432.064 149.984,272 313.344,111.936 362.144,161.904 249.792,272 362.144,382.096 "/> </g> <polygon style="fill:#f5f5f5;" points="297.344,416.064 133.984,256 297.344,95.936 346.144,145.904 233.792,256 346.144,366.096 "/> </g>
<g id="SVGRepo_iconCarrier"> <path style="fill:#938591;" d="M256,0C114.608,0,0,114.608,0,256c0,141.376,114.608,256,256,256s256-114.624,256-256 C512,114.608,397.392,0,256,0z"/> <g style="opacity:0.2;"> <polygon points="313.344,432.064 149.984,272 313.344,111.936 362.144,161.904 249.792,272 362.144,382.096 "/> </g> <polygon style="fill:#f5f5f5;" points="297.344,416.064 133.984,256 297.344,95.936 346.144,145.904 233.792,256 346.144,366.096 "/> </g>
</svg>