<!DOCTYPE svg PUBLIC "-//W3C//DTD SVG 1.1//EN" "http://www.w3.org/Graphics/SVG/1.1/DTD/svg11.dtd">
<!-- Uploaded to: SVG Repo, www.svgrepo.com, Transformed by: SVG Repo Mixer Tools -->
<svg width="800px" height="800px" viewBox="-7.46 -7.46 89.52 89.52" xmlns="http://www.w3.org/2000/svg" fill="#000000" transform="matrix(1, 0, 0, 1, 0, 0)rotate(0)">
<g id="SVGRepo_bgCarrier" stroke-width="0">
<rect x="-7.46" y="-7.46" width="89.52" height="89.52" rx="44.76" fill="#e8e8e8" strokewidth="0"/>
</g>
<g id="SVGRepo_tracerCarrier" stroke-linecap="round" stroke-linejoin="round" stroke="#e8e8e8" stroke-width="2.834952"> <g id="pie_chart" data-name="pie chart" transform="translate(-866.585 -1763.329)"> <path id="Path_390" data-name="Path 390" d="M903.884,1763.329a37.3,37.3,0,1,0,37.3,37.3h-37.3Z" fill="#af1286"/> <path id="Path_391" data-name="Path 391" d="M909.514,1763.8v30.848h31.151A37.26,37.26,0,0,0,909.514,1763.8Z" fill="#00699e"/> </g> </g>
<g id="SVGRepo_iconCarrier"> <g id="pie_chart" data-name="pie chart" transform="translate(-866.585 -1763.329)"> <path id="Path_390" data-name="Path 390" d="M903.884,1763.329a37.3,37.3,0,1,0,37.3,37.3h-37.3Z" fill="#af1286"/> <path id="Path_391" data-name="Path 391" d="M909.514,1763.8v30.848h31.151A37.26,37.26,0,0,0,909.514,1763.8Z" fill="#00699e"/> </g> </g>
</svg>